<?xml version="1.0" encoding="UTF-8" standalone="no"?>
<svg
   xmlns:dc="http://purl.org/dc/elements/1.1/"
   xmlns:cc="http://creativecommons.org/ns#"
   xmlns:rdf="http://www.w3.org/1999/02/22-rdf-syntax-ns#"
   xmlns:svg="http://www.w3.org/2000/svg"
   xmlns="http://www.w3.org/2000/svg"
   viewBox="0 0 401.33334 270.66666"
   height="270.66666"
   width="401.33334"
   xml:space="preserve"
   id="svg2"
   version="1.1"><metadata
     id="metadata8"><rdf:RDF><cc:Work
         rdf:about=""><dc:format>image/svg+xml</dc:format><dc:type
           rdf:resource="http://purl.org/dc/dcmitype/StillImage" /></cc:Work></rdf:RDF></metadata><defs
     id="defs6" /><g
     transform="matrix(1.3333333,0,0,-1.3333333,0,270.66667)"
     id="g10"><g
       transform="scale(0.1)"
       id="g12"><path
         id="path14"
         style="fill:#2e0c59;fill-opacity:1;fill-rule:evenodd;stroke:none"
         d="m 2131.02,1398.01 h -749.5 L 1311.02,1275 h 749.49 l 70.51,123.01 m -327.5,-298.52 h -593.99 l 70.51,123.01 h 593.98 l -70.5,-123.01" /><path
         id="path16"
         style="fill:#e8b307;fill-opacity:1;fill-rule:evenodd;stroke:none"
         d="m 1152.54,1099.49 274.49,475 -71.01,122.5 -344.5,-597.5 h 141.02 m -346.02,0 448.01,773.01 70.98,-122.5 -374.998,-650.51 H 806.52" /><path
         id="path18"
         style="fill:#683fa1;fill-opacity:1;fill-rule:evenodd;stroke:none"
         d="m 1221.02,2029.49 336.01,-581.99 141.49,0.51 -335.98,581.99 -141.52,-0.51 m 380.5,-61.01 300,-520.47 -141.48,-0.51 -300,520.51 141.48,0.47" /><path
         id="path20"
         style="fill:#2f0f5b;fill-opacity:1;fill-rule:nonzero;stroke:none"
         d="m 0,500.27 35,7.031 127.191,351.41 h 40.93 l 121.57,-351.09 38.899,-7.351 V 479.488 H 234.691 v 20.782 l 40.469,7.351 -26.41,78.59 H 102.34 L 75.9414,507.621 116.719,500.27 V 479.488 H 0 Z m 239.219,114.531 -39.688,119.07 -23.281,73.43 -64.371,-192.5 z m 150,-114.531 41.722,7.031 V 830.59 l -40.32,4.058 v 24.063 h 262.188 l 4.691,-69.691 -24.531,-0.469 -11.09,39.847 -143.598,3.442 V 686.211 l 107.34,2.34 9.848,35.32 h 23.91 v -102.5 H 592.34 l -6.399,36.867 -107.66,1.883 v -152.5 l 70.469,-5 V 479.488 H 389.219 Z" /><path
         id="path22"
         style="fill:#2f0f5b;fill-opacity:1;fill-rule:nonzero;stroke:none"
         d="m 691.949,500.27 41.723,7.031 V 830.59 l -40.313,4.058 v 24.063 h 262.192 l 4.679,-69.691 -24.531,-0.469 -11.09,39.847 -143.589,3.442 V 686.211 l 107.339,2.34 9.84,35.32 h 23.91 v -102.5 h -27.031 l -6.406,36.867 -107.652,1.883 v -152.5 l 70.46,-5 V 479.488 H 691.949 Z" /><path
         id="path24"
         style="fill:#2f0f5b;fill-opacity:1;fill-rule:nonzero;stroke:none"
         d="m 994.84,500.27 43.75,7.031 V 830.59 l -42.809,4.058 v 24.063 h 132.659 v -24.063 l -42.35,-4.378 V 507.621 l 44.53,-7.351 V 479.488 H 994.84 Z" /><path
         id="path26"
         style="fill:#2f0f5b;fill-opacity:1;fill-rule:nonzero;stroke:none"
         d="m 1181.68,500.27 41.25,7.351 V 827.93 l -40.31,4.058 v 26.723 h 131.4 v -26.723 l -43.28,-4.058 -0.47,-321.09 130.63,5.93 30,57.968 21.25,-10.468 -15.94,-80.782 h -254.53 z" /><path
         id="path28"
         style="fill:#2f0f5b;fill-opacity:1;fill-rule:nonzero;stroke:none"
         d="m 1485.08,500.27 43.75,7.031 V 830.59 l -42.81,4.058 v 24.063 h 132.65 v -24.063 l -42.34,-4.378 V 507.621 l 44.53,-7.351 v -20.782 h -135.78 z" /><path
         id="path30"
         style="fill:#2f0f5b;fill-opacity:1;fill-rule:nonzero;stroke:none"
         d="m 1646.45,500.27 35,7.031 127.18,351.41 h 40.94 l 121.56,-351.09 38.91,-7.351 v -20.782 h -128.91 v 20.782 l 40.47,7.351 -26.4,78.59 h -146.41 l -26.41,-78.59 40.78,-7.351 v -20.782 h -116.71 z m 239.21,114.531 -39.68,119.07 -23.28,73.43 -64.38,-192.5 z" /><path
         id="path32"
         style="fill:#2f0f5b;fill-opacity:1;fill-rule:nonzero;stroke:none"
         d="m 2085.7,500.27 59.85,7.351 V 831.52 l -88.75,-4.84 -17.03,-41.719 -22.19,-0.473 6.09,74.223 h 290.78 l -0.47,-75 -20,-2.191 -12.81,45.32 -88.12,4.68 V 507.621 l 63.75,-7.351 v -20.782 h -171.1 z" /><path
         id="path34"
         style="fill:#2f0f5b;fill-opacity:1;fill-rule:nonzero;stroke:none"
         d="m 2345.62,500.27 41.26,7.351 V 830.27 l -40.16,4.378 v 24.063 h 253.44 l 7.03,-69.84 h -26.88 l -11.25,40.93 -134.68,3.289 V 690.738 l 90.78,1.723 7.34,38.277 h 24.84 v -105 h -24.84 l -7.34,37.352 -90.78,1.398 v -158.59 l 145,4.532 24.37,50.621 23.75,-5.93 -11.09,-75.633 h -270.79 z" /><path
         id="path36"
         style="fill:#2f0f5b;fill-opacity:1;fill-rule:nonzero;stroke:none"
         d="m 2668.98,500.27 41.25,7.351 V 830.27 l -40.31,4.378 v 24.063 h 64.22 c 10.94,0 20.35,0.16 28.28,0.469 8.01,0.308 15.39,0.66 22.19,1.09 6.87,0.511 13.51,0.941 20,1.25 6.56,0.32 13.63,0.468 21.25,0.468 31.56,0.203 58.91,-3.898 82.03,-12.34 23.13,-8.359 42.23,-20.468 57.34,-36.41 15.2,-15.859 26.45,-35.078 33.75,-57.648 7.27,-22.621 10.94,-48.129 10.94,-76.57 0,-32.11 -4.96,-60.782 -14.84,-86.09 -9.92,-25.231 -23.56,-46.52 -40.94,-63.91 -17.3,-17.418 -37.73,-30.579 -61.25,-39.532 -23.55,-8.976 -48.83,-13.117 -75.78,-12.5 -12.11,0.313 -24.77,0.903 -37.97,1.723 -13.24,0.738 -27.97,1.09 -44.22,1.09 -11.17,0 -22.19,-0.071 -33.12,-0.153 -10.86,-0.117 -21.8,-0.16 -32.82,-0.16 z m 88.75,11.41 c 10.39,-2.93 21.14,-5 32.19,-6.25 11.13,-1.168 23.05,-1.559 35.78,-1.25 17.89,0.511 34.92,4.101 51.1,10.781 16.25,6.641 30.5,16.598 42.81,29.84 12.38,13.211 22.19,29.929 29.37,50.16 7.27,20.309 10.94,44.301 10.94,72.027 0,28.832 -3.51,53.832 -10.47,75 -6.87,21.25 -16.79,38.832 -29.68,52.813 -12.82,13.949 -28.44,24.258 -46.88,30.937 -18.36,6.641 -38.87,9.614 -61.56,8.91 -6.68,-0.117 -12.58,-0.308 -17.66,-0.628 -5,-0.309 -9.53,-0.7 -13.59,-1.09 -4.06,-0.309 -7.89,-0.782 -11.41,-1.41 -3.55,-0.54 -7.19,-1.09 -10.94,-1.719 z" /><path
         id="path38"
         style="fill:#2f0f5b;fill-opacity:1;fill-rule:nonzero;stroke:none"
         d="m 405.16,77.3789 -9.539,-48.75 c -14.68,-7.0273 -29.68,-9.3672 -44.062,-9.3672 -55,0 -93.438,40.6172 -93.438,117.1873 0,76.25 42.039,117.18 94.848,117.18 12.972,0 25.941,-2.649 39.222,-9.367 l 9.368,-49.063 h 21.101 l -0.781,56.403 c -25.16,14.687 -51.098,18.91 -73.129,18.91 -74.84,0 -130.16,-55.633 -130.16,-134.063 0,-79.8474 52.82,-134.07009 130.16,-134.07009 27.34,0 52.809,5.63281 76.719,18.60159 l 0.621,56.3984 z M 546.988,3.16016 c 44.852,0 88.133,31.71874 88.133,95.16014 0,63.7497 -43.75,96.5587 -88.133,96.5587 -44.84,0 -87.808,-33.277 -87.808,-96.5587 0,-62.9687 42.66,-95.16014 87.808,-95.16014 z m 0,14.69144 c -33.59,0 -52.808,27.6601 -52.808,80.4687 0,53.1287 19.218,81.8787 52.808,81.8787 33.282,0 52.813,-28.75 52.813,-81.8787 0,-52.8086 -19.531,-80.4687 -52.813,-80.4687 z" /><path
         id="path40"
         style="fill:#2f0f5b;fill-opacity:1;fill-rule:nonzero;stroke:none"
         d="M 834.961,23.7891 V 134.41 l 1.09,54.219 -3.59,3.75 -55.313,-5.93 v -11.57 l 27.34,-5.149 -1.09,-116.5698 c -16.718,-16.8711 -35,-25.1485 -53.437,-25.1485 -21.09,0 -31.871,11.8672 -31.871,46.0899 V 134.41 l 1.711,54.219 -3.903,3.75 -56.25,-5.469 v -11.25 l 27.653,-5.621 -1.09,-97.6601 c -0.313,-51.0898 18.91,-69.21874 50,-69.21874 24.219,0 48.75,12.19144 68.277,36.41014 L 807.93,4.87891 861.211,8.01172 V 19.5703 Z" /><path
         id="path42"
         style="fill:#2f0f5b;fill-opacity:1;fill-rule:nonzero;stroke:none"
         d="m 946.762,191.129 -5.16,3.441 -53.903,-20.941 V 162.07 l 30.461,-3.281 c 0.629,-15.309 0.942,-28.59 0.942,-50.309 V 88.4805 c 0,-17.8203 -0.313,-45.1602 -0.622,-64.3789 L 890.512,19.8789 V 8.01172 h 93.117 V 19.8789 l -31.867,4.5313 c -0.313,19.6914 -0.782,46.25 -0.782,64.0703 v 30.1485 c 7.34,23.441 17.5,39.223 33.282,50.781 l 4.527,-4.211 c 7.34,-6.719 14.691,-10.937 23.911,-10.937 15.31,0 21.56,10.148 21.56,26.25 -4.53,9.218 -15.63,14.367 -27.66,14.367 -21.248,0 -43.28,-18.59 -55.94,-50 z" /><path
         id="path44"
         style="fill:#2f0f5b;fill-opacity:1;fill-rule:nonzero;stroke:none"
         d="m 1159.14,31.4492 c -10.16,-7.3476 -17.19,-10.789 -26.25,-10.789 -13.75,0 -22.03,8.289 -22.03,28.6015 V 172.852 h 51.72 v 16.878 h -51.41 l 2.03,52.809 h -22.03 l -10.15,-51.879 -34.22,-4.211 v -13.597 h 32.5 V 79.7305 c 0,-14.3789 -0.32,-22.6602 -0.32,-31.8789 0,-30.7813 16.1,-44.69144 43.29,-44.69144 19.68,0 34.68,7.35154 44.53,19.53904 z" /><path
         id="path46"
         style="fill:#2f0f5b;fill-opacity:1;fill-rule:nonzero;stroke:none"
         d="m 1354.14,158.789 c -27.66,10.941 -43.44,25.621 -43.44,50.16 0,29.371 22.82,44.68 53.6,44.68 11.87,0 21.25,-2.027 31.09,-7.649 l 9.84,-45.781 h 19.85 l 2.5,50 c -16.72,12.18 -37.03,20.313 -62.97,20.313 -48.28,0 -85.47,-25.942 -85.47,-70.313 0,-38.597 26.25,-60.629 66.25,-76.719 l 14.38,-5.941 c 34.21,-13.59 48.28,-25.4687 48.28,-50.3085 0,-31.25 -24.22,-47.9688 -61.25,-47.9688 -16.57,0 -27.97,2.8086 -40.32,9.3672 l -9.84,47.9727 h -19.53 l -2.5,-53.9024 c 17.5,-11.25 45.47,-20.32029 74.53,-20.32029 53.28,0 90.31,27.35159 90.31,72.82029 0,36.0898 -18.9,57.3398 -70,77.6528 z" /><path
         id="path48"
         style="fill:#2f0f5b;fill-opacity:1;fill-rule:nonzero;stroke:none"
         d="m 1506.17,115.039 c 3.91,45.621 28.75,65.16 52.19,65.16 24.84,0 42.34,-20.629 42.34,-44.379 0,-12.66 -3.9,-21.41 -20.62,-21.41 z m 122.81,-14.687 c 1.72,5.308 2.82,12.66 2.82,21.41 0,45.148 -30.47,73.117 -71.72,73.117 -47.19,0 -87.81,-38.117 -87.81,-97.3399 0,-59.8399 35,-94.37894 86.4,-94.37894 33.91,0 58.44,16.71874 72.5,43.75004 l -7.81,5.1601 c -13.59,-16.4101 -28.59,-27.6601 -53.91,-27.6601 -37.34,0 -62.97,25.6289 -63.59,76.4098 z" /><path
         id="path50"
         style="fill:#2f0f5b;fill-opacity:1;fill-rule:nonzero;stroke:none"
         d="m 1721.95,191.129 -5.15,3.441 -53.91,-20.941 V 162.07 l 30.47,-3.281 c 0.62,-15.309 0.94,-28.59 0.94,-50.309 V 88.4805 c 0,-17.8203 -0.32,-45.1602 -0.63,-64.3789 L 1665.7,19.8789 V 8.01172 h 93.13 V 19.8789 l -31.88,4.5313 c -0.31,19.6914 -0.78,46.25 -0.78,64.0703 v 30.1485 c 7.35,23.441 17.5,39.223 33.28,50.781 l 4.53,-4.211 c 7.35,-6.719 14.69,-10.937 23.91,-10.937 15.31,0 21.56,10.148 21.56,26.25 -4.53,9.218 -15.62,14.367 -27.65,14.367 -21.25,0 -43.28,-18.59 -55.94,-50 z" /><path
         id="path52"
         style="fill:#2f0f5b;fill-opacity:1;fill-rule:nonzero;stroke:none"
         d="m 2006.02,189.73 h -70.63 v -12.66 l 31.41,-4.84 -44.38,-128.1284 -48.59,129.0584 33.12,3.91 v 12.66 h -91.56 v -12.66 l 21.56,-3.121 69.07,-168.43728 h 15.62 l 62.66,166.71828 21.72,4.84 z" /><path
         id="path54"
         style="fill:#2f0f5b;fill-opacity:1;fill-rule:nonzero;stroke:none"
         d="m 2068.24,238.629 c 13.28,0 24.53,10.16 24.53,23.75 0,14.07 -11.25,23.601 -24.53,23.601 -13.9,0 -24.84,-9.531 -24.84,-23.601 0,-13.59 10.94,-23.75 24.84,-23.75 z m 16.88,-214.5274 c -0.32,19.5273 -0.78,46.5586 -0.78,64.3789 v 51.3985 l 0.78,51.25 -5.32,3.441 -58.75,-20.621 v -11.57 l 31.1,-2.809 c 0.78,-16.871 1.09,-29.371 1.09,-50.781 V 88.4805 c 0,-17.8203 -0.31,-44.8516 -0.62,-64.3789 l -29.53,-4.2227 V 8.01172 h 88.28 V 19.8789 Z" /><path
         id="path56"
         style="fill:#2f0f5b;fill-opacity:1;fill-rule:nonzero;stroke:none"
         d="m 2290.27,53.4805 c -12.34,-18.1289 -31.56,-29.0703 -53.59,-29.0703 -36.72,0 -63.28,27.9687 -63.28,77.3518 0,49.687 23.75,78.437 58.75,78.437 5.94,0 13.28,-1.097 20.62,-3.437 l 7.35,-27.032 c 2.18,-10.781 8.12,-17.82 20.31,-17.82 9.06,0 14.69,4.539 16.87,14.07 -5.31,28.282 -33.28,48.899 -67.34,48.899 -46.41,0 -89.53,-36.09 -89.53,-96.5587 0,-58.4414 34.69,-95.16014 86.41,-95.16014 35.78,0 59.84,17.03904 71.09,46.87894 z" /><path
         id="path58"
         style="fill:#2f0f5b;fill-opacity:1;fill-rule:nonzero;stroke:none"
         d="m 2362.73,115.039 c 3.91,45.621 28.75,65.16 52.19,65.16 24.85,0 42.35,-20.629 42.35,-44.379 0,-12.66 -3.91,-21.41 -20.63,-21.41 z m 122.82,-14.687 c 1.72,5.308 2.81,12.66 2.81,21.41 0,45.148 -30.47,73.117 -71.72,73.117 -47.19,0 -87.81,-38.117 -87.81,-97.3399 0,-59.8399 35,-94.37894 86.4,-94.37894 33.91,0 58.44,16.71874 72.5,43.75004 l -7.81,5.1601 c -13.59,-16.4101 -28.59,-27.6601 -53.9,-27.6601 -37.35,0 -62.97,25.6289 -63.6,76.4098 z" /><path
         id="path60"
         style="fill:#2f0f5b;fill-opacity:1;fill-rule:nonzero;stroke:none"
         d="m 2592.23,117.852 c -25.94,9.527 -35.78,16.878 -35.78,34.058 0,16.719 12.96,27.969 37.5,27.969 9.37,0 18.59,-2.5 27.65,-7.027 l 7.35,-32.5 h 17.18 l 1.41,38.75 c -16.88,10.16 -32.97,15.777 -53.59,15.777 -43.13,0 -66.88,-25.149 -66.88,-53.59 0,-26.25 18.59,-41.25 46.88,-51.7187 l 17.96,-5.9414 c 25.16,-9.5273 35.63,-18.2773 35.63,-35 0,-18.2773 -14.06,-30.7773 -44.06,-30.7773 -12.35,0 -22.5,2.0273 -31.57,6.25 l -8.43,35.3086 h -18.13 l 0.63,-42.0313 c 18.9,-9.36718 35.78,-14.21874 57.81,-14.21874 48.59,0 74.22,25.16014 74.22,54.53904 0,24.211 -14.69,42.0313 -52.5,55.3128 z" /></g></g></svg>